# xmcd
#
# Track frame offsets:
#  150
#  14762
#  27193
#  36666
#  48706
#  58958
#  74637
#  88270
#  107218
#  116552
#  127761
#  138307
#  155088
#  166960
#
# Disc length: 2424 seconds
#
# Revision: 0
# Processed by: cddbd v1.5.2PL0 Copyright (c) Steve Scherf et al.
# Submitted via: AltoMP3_Maker 3.0
#
DISCID=d509760e
DTITLE=Miss Maybell and Slimpickin's - Vol. 1
DYEAR=1900
DGENRE=
TTITLE0=It's All Your Fault
TTITLE1=Baby Please Don't Go
TTITLE2=It Won't Be Long
TTITLE3=Old Man Moon
TTITLE4=Rag Mama Rag
TTITLE5=Head for the Hills
TTITLE6=Everybody Loves My Baby
TTITLE7=Lonesome Day Blues
TTITLE8=Put a Little Sugar on It
TTITLE9=Lovely Hula Hands
TTITLE10=Sunny Spot of Ground
TTITLE11=Nobody Knows You When You're Down and Out
TTITLE12=San Francisco Bay Blues
TTITLE13=You Belong to Me
EXTD=
EXTT0=
EXTT1=
EXTT2=
EXTT3=
EXTT4=
EXTT5=
EXTT6=
EXTT7=
EXTT8=
EXTT9=
EXTT10=
EXTT11=
EXTT12=
EXTT13=
PLAYORDER=
